<svg class="lds-spinner" width="100px"  height="100px"  xmlns="http://www.w3.org/2000/svg" xmlns:xlink="http://www.w3.org/1999/xlink" viewBox="0 0 100 100" preserveAspectRatio="xMidYMid" style="background: rgba(0, 0, 0, 0) none repeat scroll 0% 0%;"><g transform="rotate(0 50 50)">
  <rect x="47" y="24" rx="9.4" ry="4.8" width="6" height="12" fill="#1c4595">
    <animate attributeName="opacity" values="1;0" keyTimes="0;1" dur="3s" begin="-2.75s" repeatCount="indefinite"></animate>
  </rect>
</g><g transform="rotate(30 50 50)">
  <rect x="47" y="24" rx="9.4" ry="4.8" width="6" height="12" fill="#1c4595">
    <animate attributeName="opacity" values="1;0" keyTimes="0;1" dur="3s" begin="-2.5s" repeatCount="indefinite"></animate>
  </rect>
</g><g transform="rotate(60 50 50)">
  <rect x="47" y="24" rx="9.4" ry="4.8" width="6" height="12" fill="#1c4595">
    <animate attributeName="opacity" values="1;0" keyTimes="0;1" dur="3s" begin="-2.25s" repeatCount="indefinite"></animate>
  </rect>
</g><g transform="rotate(90 50 50)">
  <rect x="47" y="24" rx="9.4" ry="4.8" width="6" height="12" fill="#1c4595">
    <animate attributeName="opacity" values="1;0" keyTimes="0;1" dur="3s" begin="-2s" repeatCount="indefinite"></animate>
  </rect>
</g><g transform="rotate(120 50 50)">
  <rect x="47" y="24" rx="9.4" ry="4.8" width="6" height="12" fill="#1c4595">
    <animate attributeName="opacity" values="1;0" keyTimes="0;1" dur="3s" begin="-1.75s" repeatCount="indefinite"></animate>
  </rect>
</g><g transform="rotate(150 50 50)">
  <rect x="47" y="24" rx="9.4" ry="4.8" width="6" height="12" fill="#1c4595">
    <animate attributeName="opacity" values="1;0" keyTimes="0;1" dur="3s" begin="-1.5s" repeatCount="indefinite"></animate>
  </rect>
</g><g transform="rotate(180 50 50)">
  <rect x="47" y="24" rx="9.4" ry="4.8" width="6" height="12" fill="#1c4595">
    <animate attributeName="opacity" values="1;0" keyTimes="0;1" dur="3s" begin="-1.25s" repeatCount="indefinite"></animate>
  </rect>
</g><g transform="rotate(210 50 50)">
  <rect x="47" y="24" rx="9.4" ry="4.8" width="6" height="12" fill="#1c4595">
    <animate attributeName="opacity" values="1;0" keyTimes="0;1" dur="3s" begin="-1s" repeatCount="indefinite"></animate>
  </rect>
</g><g transform="rotate(240 50 50)">
  <rect x="47" y="24" rx="9.4" ry="4.8" width="6" height="12" fill="#1c4595">
    <animate attributeName="opacity" values="1;0" keyTimes="0;1" dur="3s" begin="-0.75s" repeatCount="indefinite"></animate>
  </rect>
</g><g transform="rotate(270 50 50)">
  <rect x="47" y="24" rx="9.4" ry="4.8" width="6" height="12" fill="#1c4595">
    <animate attributeName="opacity" values="1;0" keyTimes="0;1" dur="3s" begin="-0.5s" repeatCount="indefinite"></animate>
  </rect>
</g><g transform="rotate(300 50 50)">
  <rect x="47" y="24" rx="9.4" ry="4.8" width="6" height="12" fill="#1c4595">
    <animate attributeName="opacity" values="1;0" keyTimes="0;1" dur="3s" begin="-0.25s" repeatCount="indefinite"></animate>
  </rect>
</g><g transform="rotate(330 50 50)">
  <rect x="47" y="24" rx="9.4" ry="4.8" width="6" height="12" fill="#1c4595">
    <animate attributeName="opacity" values="1;0" keyTimes="0;1" dur="3s" begin="0s" repeatCount="indefinite"></animate>
  </rect>
</g></svg>